HIERARCHY
ROOT pelvis
{
  OFFSET 0 100 0
  CHANNELS 6 Xposition Yposition Zposition Zrotation Xrotation Yrotation
  JOINT pelvis_right_femur
  {
    OFFSET -10.78128 -3.44521 -0.5502486
    CHANNELS 3 Zrotation Xrotation Yrotation
    JOINT right_femur_tibia
    {
      OFFSET -0.8047443 -44.0398 -0.1307829
      CHANNELS 3 Zrotation Xrotation Yrotation
      JOINT right_tibia_foot
      {
        OFFSET 3.006224 -47.83518 -5
        CHANNELS 3 Zrotation Xrotation Yrotation
        End Site
        {
          OFFSET 0 -5 15
        }
      }
    }
  }
  JOINT pelvis_left_femur
  {
    OFFSET 10.78128 -3.44521 -0.5502486
    CHANNELS 3 Zrotation Xrotation Yrotation
    JOINT left_femur_tibia
    {
      OFFSET 0.8047443 -44.0398 -0.1307829
      CHANNELS 3 Zrotation Xrotation Yrotation
      JOINT left_tibia_foot
      {
        OFFSET -4.370144 -48.10324 -4.275266
        CHANNELS 3 Zrotation Xrotation Yrotation
        End Site
        {
          OFFSET 0 -5 15
        }
      }
    }
  }
  JOINT pelvis_spine1
  {
    OFFSET 0 6.468898 -3.129235
    CHANNELS 3 Zrotation Xrotation Yrotation
    JOINT spine1
    {
      OFFSET 0 23.15396 4.99043
      CHANNELS 3 Zrotation Xrotation Yrotation
      JOINT spine2
      {
        OFFSET 0 20.79997 -5.064912
        CHANNELS 3 Zrotation Xrotation Yrotation
        JOINT neck
        {
          OFFSET 0 14.38658 9.616178
          CHANNELS 3 Zrotation Xrotation Yrotation
          End Site
          {
            OFFSET 0 20 0
          }
        }
      }
      JOINT right_manubrium
      {
        OFFSET -5.722621 16.35077 3.967754
        CHANNELS 3 Zrotation Xrotation Yrotation
        JOINT right_clavicle
        {
          OFFSET -13.16364 1.694482 -4.693211
          CHANNELS 3 Zrotation Xrotation Yrotation
          JOINT right_humerus
          {
            OFFSET -28.5034 -0.3100689 -2.792744
            CHANNELS 3 Zrotation Xrotation Yrotation
            JOINT right_radius
            {
              OFFSET -25.15693 0.02248979 -1.271978
              CHANNELS 3 Zrotation Xrotation Yrotation
              End Site
              {
                OFFSET -15 0 0
              }
            }
          }
        }
      }
      JOINT left_manubrium
      {
        OFFSET 5.722621 16.35077 3.967754
        CHANNELS 3 Zrotation Xrotation Yrotation
        JOINT left_clavicle
        {
          OFFSET 13.16364 1.694482 -4.693211
          CHANNELS 3 Zrotation Xrotation Yrotation
          JOINT left_humerus
          {
            OFFSET 29.39168 -1.063119 -2.237045
            CHANNELS 3 Zrotation Xrotation Yrotation
            JOINT left_radius
            {
              OFFSET 24.59957 -0.9528479 0.9047498
              CHANNELS 3 Zrotation Xrotation Yrotation
              End Site
              {
                OFFSET 15 -0 -0
              }
            }
          }
        }
      }
    }
  }
}
MOTION
Frames: 11
Frame Time: 0.0416666666667
0 103.5113 0 2.171001 0.1448275 0.05859929 3.348212 -15.12394 11.5375 -0 37.08229 -0 -4.313853 -17.53107 -3.606941 -8.391824 8.688985 -21.36504 -0 5.306945 -0 22.00087 -9.28842 29.41982 -1.969553 -2.16165 6.064213 1.657084 11.06614 -6.16408 1.773948 21.67282 5.790589 3.459765 -24.30348 8.644113 6.089353 -19.52204 10.40169 85.28133 37.01409 -17.78285 -0 0 14.70518 -8.449777 9.876427 4.708229 6.447886 -21.12402 -2.74431 -92.45035 22.92533 21.03806 0 0 -16.78826 14.88717 12.855 -0.7178158
0.4016287 103.4461 1.729198 1.579253 1.195901 0.04914463 4.406825 -17.84104 12.60688 -0 37.68972 -0 -4.350807 -16.81736 -3.679707 -8.127283 8.393294 -21.36986 -0 5.568417 -0 22.56531 -9.51185 29.94471 -1.890618 -1.933383 5.916248 1.795698 10.93266 -6.256145 1.691832 21.53125 5.938378 3.558397 -24.4926 8.58434 5.989071 -19.3059 10.50346 85.20278 36.73635 -17.69834 -0 0 14.45397 -8.819044 9.952024 5.054652 6.396984 -21.05299 -2.634931 -92.2202 22.75672 20.69724 0 0 -16.91215 14.45041 12.56293 -0.4676448
0.6877307 103.1794 3.627547 1.224234 0.2225413 0.09003512 4.425937 -19.46505 9.170408 -0 35.18579 -0 -5.984262 -14.70263 -2.594616 -7.652311 10.08381 -21.22457 -0 6.498078 -0 18.33554 -12.91727 28.49935 -1.902926 -2.205841 6.03226 1.768815 10.95989 -6.341252 1.809897 21.65527 5.735512 3.337467 -24.47827 8.717849 6.043329 -19.48009 10.43876 85.60282 36.92716 -18.28084 -0 0 14.53613 -8.068285 9.768464 4.457583 6.359413 -21.10317 -2.65292 -92.62072 23.42829 21.23618 0 0 -16.9986 14.34121 13.24499 -0.1013937
0.9087717 102.863 5.753179 0.7187171 0.14423 0.08918094 4.942839 -21.98169 7.602328 -0 33.36128 -0 -6.959021 -12.74982 -1.921304 -7.183165 10.86963 -20.79115 -0 7.426068 -0 16.26734 -14.8678 27.49902 -1.882026 -2.340348 6.064036 1.79901 10.93102 -6.452018 1.875415 21.69668 5.630246 3.196941 -24.53871 8.804792 6.044236 -19.53997 10.42841 85.90807 36.94603 -18.73271 -0 0 14.51722 -7.604864 9.634204 4.104196 6.312198 -21.11364 -2.622823 -92.86793 23.91991 21.55027 0 0 -17.11308 14.04697 13.69291 0.3243506
1.082764 102.4505 8.178957 0.2910888 -0.01214894 0.08242973 5.350301 -24.38064 5.871542 -0 30.94135 -0 -7.983963 -10.59059 -1.127345 -6.751552 11.57642 -20.01315 -0 8.703679 -0 14.70427 -16.3985 26.25474 -1.877798 -2.489919 6.08364 1.826655 10.91275 -6.567035 1.941043 21.73241 5.532706 3.063561 -24.59352 8.897026 6.05758 -19.60428 10.42127 86.20354 36.93758 -19.17797 -0 0 14.53075 -7.15237 9.488418 3.747022 6.283413 -21.12771 -2.588063 -93.1228 24.367 21.85699 0 0 -17.17015 13.78242 14.14669 0.693457
1.224469 101.9781 10.96629 -0.1145597 -0.03379684 0.0827305 5.776251 -26.75245 4.385032 -0 28.31573 -0 -8.923852 -8.37767 -0.3542393 -6.359186 12.13552 -19.01983 -0 10.37039 -0 13.60198 -17.48403 24.91103 -1.864938 -2.587132 6.08091 1.866037 10.87841 -6.674111 1.986035 21.74557 5.469119 2.962812 -24.6622 8.96725 6.052473 -19.63674 10.42916 86.43809 36.88767 -19.53312 -0 0 14.52378 -6.820543 9.367467 3.493528 6.250211 -21.12388 -2.54462 -93.31839 24.73438 22.08689 0 0 -17.2266 13.48224 14.49399 1.057986
1.342385 101.4832 14.17523 -0.4521928 -0.0694104 0.1050095 6.12559 -28.71488 2.931202 -0 25.48979 -0 -9.856999 -6.145893 0.4267851 -6.021385 12.61087 -17.79804 -0 12.64608 -0 12.72507 -18.10202 23.35601 -1.850131 -2.637908 6.06238 1.909493 10.83722 -6.761517 2.010684 21.7428 5.437287 2.897528 -24.73225 9.014218 6.038502 -19.64272 10.44583 86.59819 36.82198 -19.78007 -0 0 14.50277 -6.610916 9.281521 3.341899 6.218844 -21.10924 -2.501201 -93.44745 24.9957 22.23274 0 0 -17.27057 13.20724 14.72498 1.360309
1.44134 101.0403 17.85765 -0.7497003 -0.1312457 0.1529042 6.45567 -30.08721 1.621671 -0 22.72562 -0 -10.76943 -3.955503 1.141388 -5.705749 12.96204 -16.38013 -0 15.76179 -0 11.85216 -18.17708 21.54144 -1.826194 -2.635167 6.036252 1.953292 10.78844 -6.822202 2.015174 21.72853 5.433684 2.867139 -24.79945 9.033996 6.011708 -19.62164 10.46712 86.68599 36.75865 -19.91645 -0 0 14.4547 -6.522945 9.238385 3.294597 6.183579 -21.08479 -2.465122 -93.50375 25.16528 22.29478 0 0 -17.33063 12.95821 14.82976 1.614779
1.522562 100.7454 22.04633 -1.030504 -0.2878961 0.2089791 6.82306 -30.62046 0.5415937 -0 20.29509 -0 -11.66274 -1.865095 1.72356 -5.367848 13.09047 -14.78217 -0 19.98037 -0 10.81959 -17.56006 19.44244 -1.792375 -2.582789 6.013161 1.988261 10.73977 -6.847824 2.002519 21.70953 5.451431 2.869474 -24.85116 9.025073 5.974563 -19.58033 10.4868 86.70434 36.71607 -19.94148 -0 0 14.38149 -6.549326 9.241185 3.34305 6.145522 -21.05614 -2.445541 -93.48773 25.24739 22.27935 0 0 -17.41764 12.75985 14.80839 1.810984
1.585272 100.7058 26.7387 -1.331164 -0.5951229 0.2275338 7.302946 -30.14189 -0.1845318 -0 18.46182 -0 -12.52668 0.049593 2.103385 -4.944662 12.80931 -13.05103 -0 25.51005 -0 9.528231 -16.11095 17.11029 -1.745915 -2.485328 6.006444 2.003421 10.69853 -6.830411 1.977138 21.69342 5.480945 2.899525 -24.87297 8.985901 5.926298 -19.52915 10.49861 86.65993 36.70952 -19.85683 -0 0 14.28931 -6.679714 9.288727 3.47634 6.103799 -21.02718 -2.451152 -93.40604 25.25996 22.20331 0 0 -17.54739 12.62107 14.66694 1.959231
1.627987 101.0106 31.8766 -1.659885 -1.115967 0.1347393 7.894108 -28.53139 -0.5257635 -0 17.31693 -0 -13.35453 1.665708 2.248766 -4.389436 11.85441 -11.26766 -0 32.38682 -0 8.005773 -13.78751 14.70636 -1.686364 -2.349563 6.030386 1.985941 10.67296 -6.760579 1.943388 21.68772 5.51262 2.952174 -24.84763 8.914676 5.865669 -19.48254 10.49672 86.55288 36.75125 -19.6539 -0 0 14.19542 -6.909612 9.378532 3.687074 6.05956 -21.00092 -2.488044 -93.2674 25.21506 22.08703 0 0 -17.72531 12.55363 14.41195 2.064678
